<?xml version="1.0" encoding="utf-8"?>
<!-- Generator: Adobe Illustrator 15.0.0, SVG Export Plug-In . SVG Version: 6.00 Build 0)  -->
<!DOCTYPE svg PUBLIC "-//W3C//DTD SVG 1.1//EN" "http://www.w3.org/Graphics/SVG/1.1/DTD/svg11.dtd">
<svg version="1.1" id="Layer_1" xmlns="http://www.w3.org/2000/svg" xmlns:xlink="http://www.w3.org/1999/xlink" x="0px" y="0px"
	 width="28.883px" height="22.47px" viewBox="99.564 64.283 28.883 22.47" enable-background="new 99.564 64.283 28.883 22.47"
	 xml:space="preserve" fill="currentColor">
<path d="M125.368,79.688l-11.684-7.278c0.001-0.103,0.007-0.205,0.003-0.308c-0.015-0.421-0.071-0.839-0.166-1.248
	c-0.097-0.409-0.23-0.81-0.402-1.193c-0.171-0.386-0.381-0.755-0.626-1.103c-0.245-0.35-0.527-0.677-0.843-0.977
	c-0.316-0.3-0.669-0.572-1.053-0.813c-0.383-0.238-0.783-0.434-1.191-0.586c-0.409-0.15-0.827-0.26-1.248-0.326
	c-0.422-0.066-0.846-0.092-1.267-0.076s-0.839,0.071-1.249,0.167c-0.409,0.095-0.808,0.229-1.193,0.399
	c-0.385,0.173-0.754,0.382-1.103,0.628l5.605,3.519l-2.693,4.323l-5.613-3.506c-0.067,0.422-0.092,0.846-0.077,1.266
	c0.017,0.422,0.072,0.84,0.168,1.249c0.096,0.408,0.229,0.809,0.401,1.192c0.172,0.387,0.381,0.756,0.626,1.104
	c0.246,0.35,0.527,0.676,0.843,0.977c0.317,0.301,0.668,0.572,1.053,0.813c0.384,0.238,0.783,0.434,1.192,0.586
	c0.409,0.15,0.827,0.259,1.247,0.325c0.421,0.067,0.846,0.092,1.268,0.076c0.42-0.016,0.838-0.07,1.247-0.166
	c0.409-0.095,0.81-0.229,1.194-0.399c0.091-0.041,0.172-0.104,0.261-0.148l11.698,7.287c1.611,1.003,3.59,0.736,4.421-0.598
	l0.594-0.955C127.612,82.585,126.979,80.691,125.368,79.688z"/>
</svg>
