<?xml version="1.0" encoding="utf-8"?>
<!-- Generator: Adobe Illustrator 15.0.0, SVG Export Plug-In . SVG Version: 6.00 Build 0)  -->
<!DOCTYPE svg PUBLIC "-//W3C//DTD SVG 1.1//EN" "http://www.w3.org/Graphics/SVG/1.1/DTD/svg11.dtd">
<svg version="1.1" id="Layer_1" xmlns="http://www.w3.org/2000/svg" xmlns:xlink="http://www.w3.org/1999/xlink" x="0px" y="0px"
	 width="28.883px" height="22.47px" viewBox="99.564 64.283 28.883 22.47" enable-background="new 99.564 64.283 28.883 22.47"
	 xml:space="preserve" stroke="currentColor">
<g>
	<g>
		<path fill="none" stroke-width="1.8968" d="M107.295,69.16v-3.617c0-0.144,0.39-0.26,0.873-0.26h15.367
			c0.481,0,0.871,0.116,0.871,0.26v6.575"/>
	</g>
	<path fill="none" stroke-width="1.8968" d="M110.178,82.753h-8.741c-0.483,0-0.873-0.116-0.873-0.261V69.59
		c0-0.144,0.39-0.26,0.873-0.26h15.367c0.481,0,0.871,0.116,0.871,0.26v2.57"/>
	<g>
		<path fill="none" stroke-width="1.8968" d="M127.447,85.492c0,0.145-0.39,0.261-0.871,0.261h-15.367
			c-0.483,0-0.873-0.116-0.873-0.261V72.59c0-0.144,0.39-0.26,0.873-0.26h15.367c0.481,0,0.871,0.116,0.871,0.26V85.492z"/>
	</g>
</g>
</svg>
