<?xml version="1.0" encoding="utf-8"?>
<!-- Generator: Adobe Illustrator 15.0.0, SVG Export Plug-In . SVG Version: 6.00 Build 0)  -->
<!DOCTYPE svg PUBLIC "-//W3C//DTD SVG 1.1//EN" "http://www.w3.org/Graphics/SVG/1.1/DTD/svg11.dtd">
<svg version="1.1" id="Layer_1" xmlns="http://www.w3.org/2000/svg" xmlns:xlink="http://www.w3.org/1999/xlink" x="0px" y="0px"
	 width="53.23px" height="38.843px" viewBox="0 0 53.23 38.843" enable-background="new 0 0 53.23 38.843" xml:space="preserve">
<path fill="#9fb9d0" d="M42.927,18.343c0,1.415-0.115,2.797-0.336,4.132c-0.221,1.334-0.547,2.622-0.966,3.848
	c-0.419,1.227-0.932,2.392-1.526,3.482c-0.596,1.091-0.467,2.101-1.264,3.034c-0.798,0.934-2.329,1.766-3.21,2.503
	c-0.882,0.736-1.823,1.371-2.813,1.89s-2.031,0.922-3.109,1.194c-1.078,0.273-2.194,0.417-3.338,0.417s-2.26-0.144-3.338-0.417
	c-1.078-0.272-2.118-0.676-3.109-1.194s-1.933-1.153-2.813-1.89c-0.881-0.737-2.412-1.569-3.209-2.503
	c-0.798-0.934-0.669-1.943-1.264-3.034s-1.108-2.256-1.527-3.482c-0.419-1.226-0.744-2.514-0.965-3.848
	c-0.221-1.335-0.336-2.717-0.336-4.132s0.116-2.797,0.336-4.132c0.221-1.334,0.546-2.622,0.965-3.848
	c0.419-1.227,0.932-2.392,1.527-3.482c0.595-1.09,1.273-2.106,2.022-3.034s1.57-1.767,2.451-2.503
	c0.881-0.737,1.823-1.371,2.813-1.89c0.991-0.519,2.031-0.921,3.109-1.194s2.194-0.417,3.338-0.417s2.26,0.144,3.338,0.417
	s2.119,0.676,3.109,1.194c0.99,0.519,1.932,1.153,2.813,1.89c0.881,0.737,1.702,1.576,2.451,2.503s1.427,1.943,2.022,3.034
	c0.595,1.091,1.107,2.256,1.526,3.482c0.419,1.226,0.745,2.513,0.966,3.848C42.812,15.546,42.927,16.928,42.927,18.343z"/>
<g>
	<ellipse fill="#121C22" cx="21.427" cy="30.609" rx="3.375" ry="3.313"/>
	<ellipse fill="#121C22" cx="31.302" cy="30.609" rx="3.375" ry="3.313"/>
	<ellipse fill="#9fb9d0" cx="21.39" cy="29.614" rx="1.337" ry="1.313"/>
	<ellipse fill="#9fb9d0" cx="31.265" cy="29.489" rx="1.337" ry="1.313"/>
</g>
<ellipse fill="#121C22" cx="26.24" cy="12.898" rx="12.875" ry="12.898"/>
<path fill="#9fb9d0" d="M34.055,6.861c-0.25-0.492-0.576-0.96-0.948-1.346l0.762-1.239L31.52,2.805l-0.765,1.223
	c-0.508-0.166-1.034-0.227-1.58-0.238c-0.005-0.001-0.336-1.387-0.336-1.387l-2.697,0.624l0.328,1.37
	c-0.501,0.236-0.961,0.566-1.354,0.947l-1.23-0.772l-1.465,2.342l1.225,0.765c-0.163,0.509-0.244,1.1-0.256,1.65
	c-0.003,0.003,0.009,0.054,0.009,0.054l-1.337,0.309l0.603,2.609l1.336-0.309c-0.005,0.001-0.023-0.056-0.036-0.082
	c0.013,0.024,0.023,0.045,0.033,0.069c0.252,0.497,0.577,0.942,0.956,1.336l-0.768,1.224l2.346,1.464l0.767-1.226
	c0.521,0.167,1.083,0.289,1.644,0.297l0.316,1.42l2.696-0.624c0,0-0.321-1.433-0.317-1.436c0.486-0.25,0.922-0.58,1.304-0.952
	l1.226,0.76l1.464-2.349l-1.226-0.767c0.166-0.519,0.261-1.058,0.273-1.615c0-0.026,0.008,0.007,0.002,0.008l1.461-0.338
	l-0.604-2.609l-1.465,0.339C34.069,6.914,34.057,6.862,34.055,6.861z M29.461,11.277c-1.035,0.239-2.071-0.407-2.312-1.446
	c-0.24-1.036,0.407-2.071,1.442-2.311c1.04-0.24,2.072,0.407,2.312,1.442C31.143,10.002,30.501,11.037,29.461,11.277z"/>
<path fill="#9fb9d0" d="M23.951,15.358c-0.094-0.337-0.237-0.668-0.42-0.954l0.627-0.674l-1.273-1.207l-0.628,0.664
	c-0.294-0.167-0.613-0.271-0.951-0.345c-0.003-0.002-0.035-0.903-0.035-0.903l-1.752,0.051l0.033,0.891
	c-0.34,0.083-0.668,0.231-0.959,0.418l-0.667-0.632l-1.202,1.271l0.665,0.628c-0.165,0.295-0.289,0.651-0.365,0.992
	c-0.002,0.002-0.001,0.035-0.001,0.035l-0.868,0.025l0.048,1.694l0.868-0.024c-0.003,0-0.007-0.038-0.012-0.056
	c0.005,0.017,0.008,0.032,0.012,0.047c0.095,0.34,0.24,0.656,0.426,0.948l-0.629,0.664l1.273,1.202l0.629-0.664
	c0.303,0.167,0.636,0.313,0.983,0.39l0.019,0.919l1.752-0.049c0,0-0.021-0.93-0.018-0.93c0.333-0.096,0.645-0.246,0.929-0.429
	l0.666,0.625l1.202-1.275l-0.666-0.629c0.168-0.302,0.294-0.624,0.371-0.968c0.003-0.016,0.004,0.005,0.001,0.005l0.949-0.027
	l-0.048-1.694l-0.952,0.027C23.953,15.392,23.953,15.359,23.951,15.358z M20.547,17.524c-0.672,0.02-1.235-0.511-1.254-1.186
	c-0.019-0.673,0.512-1.235,1.184-1.254c0.676-0.019,1.236,0.512,1.255,1.185C21.751,16.944,21.223,17.505,20.547,17.524z"/>
</svg>
