<?xml version="1.0" encoding="utf-8"?>
<!-- Generator: Adobe Illustrator 15.0.0, SVG Export Plug-In . SVG Version: 6.00 Build 0)  -->
<!DOCTYPE svg PUBLIC "-//W3C//DTD SVG 1.1//EN" "http://www.w3.org/Graphics/SVG/1.1/DTD/svg11.dtd">
<svg version="1.1" id="Layer_1" xmlns="http://www.w3.org/2000/svg" xmlns:xlink="http://www.w3.org/1999/xlink" x="0px" y="0px"
	 width="28.883px" height="22.47px" viewBox="99.564 64.283 28.883 22.47" enable-background="new 99.564 64.283 28.883 22.47"
	 xml:space="preserve" stroke="currentColor">
<g>
	<path fill="none" stroke-width="1.5" d="M126.239,85.385c0,0.202-0.554,0.367-1.241,0.367h-21.966
		c-0.694,0-1.251-0.165-1.251-0.367V67.019c0-0.205,0.557-0.367,1.251-0.367h21.966c0.688,0,1.241,0.162,1.241,0.367V85.385z"/>
</g>
<g>
	<path fill="none" stroke-width="1.5" d="M119.239,67.978c0,0.03-0.227,0.054-0.508,0.054h-8.98
		c-0.284,0-0.512-0.023-0.512-0.054v-2.643c0-0.029,0.228-0.053,0.512-0.053h8.98c0.281,0,0.508,0.023,0.508,0.053V67.978z"/>
</g>
<g>
	<path fill="none" stroke-width="1.5" d="M122.823,76.753c0,0.068-0.16,0.125-0.359,0.125h-6.361
		c-0.201,0-0.362-0.057-0.362-0.125v-6.27c0-0.07,0.161-0.125,0.362-0.125h6.361c0.199,0,0.359,0.055,0.359,0.125V76.753z"/>
</g>
<g>
	<path fill="none" stroke-width="1.5" d="M122.823,83.429c0,0.04-0.16,0.073-0.359,0.073h-6.361
		c-0.201,0-0.362-0.033-0.362-0.073v-3.665c0-0.041,0.161-0.073,0.362-0.073h6.361c0.199,0,0.359,0.032,0.359,0.073V83.429z"/>
</g>
<line fill="none" stroke-width="1.5" x1="105.137" y1="70.408" x2="111.303" y2="70.408"/>
<line fill="none" stroke-width="1.5" x1="105.137" y1="72.575" x2="111.303" y2="72.575"/>
<line fill="none" stroke-width="1.5" x1="105.137" y1="74.741" x2="111.303" y2="74.741"/>
<line fill="none" stroke-width="1.5" x1="105.137" y1="76.908" x2="111.303" y2="76.908"/>
<polyline fill="none" stroke-width="1.5" points="106.303,81.118 107.845,82.66 110.719,79.785 "/>
</svg>
