<?xml version="1.0" encoding="utf-8"?>
<!-- Generator: Adobe Illustrator 15.0.0, SVG Export Plug-In . SVG Version: 6.00 Build 0)  -->
<!DOCTYPE svg PUBLIC "-//W3C//DTD SVG 1.1//EN" "http://www.w3.org/Graphics/SVG/1.1/DTD/svg11.dtd">
<svg version="1.1" id="Layer_1" xmlns="http://www.w3.org/2000/svg" xmlns:xlink="http://www.w3.org/1999/xlink" x="0px" y="0px"
	 width="28.883px" height="22.47px" viewBox="99.564 64.283 28.883 22.47" enable-background="new 99.564 64.283 28.883 22.47"
	 xml:space="preserve" stroke="currentColor">
<g>
	<path fill="none" stroke-width="1.5" d="M126.447,85.91c0,0.095-0.227,0.173-0.508,0.173h-8.98
		c-0.284,0-0.512-0.078-0.512-0.173v-8.654c0-0.097,0.228-0.173,0.512-0.173h8.98c0.281,0,0.508,0.076,0.508,0.173V85.91z"/>
</g>
<g>
	<path fill="none" stroke-width="1.5" d="M111.564,73.86c0,0.095-0.227,0.173-0.508,0.173h-8.98
		c-0.284,0-0.512-0.078-0.512-0.173v-8.653c0-0.097,0.228-0.174,0.512-0.174h8.98c0.281,0,0.508,0.077,0.508,0.174V73.86z"/>
</g>
<g>
	<path fill="none" stroke-width="1.5" d="M126.447,73.859c0,0.096-0.227,0.174-0.508,0.174h-8.98
		c-0.284,0-0.512-0.078-0.512-0.174v-8.652c0-0.097,0.228-0.174,0.512-0.174h8.98c0.281,0,0.508,0.077,0.508,0.174V73.859z"/>
</g>
<g>
	<path fill="none" stroke-width="1.5" d="M111.564,85.91c0,0.095-0.227,0.173-0.508,0.173h-8.98
		c-0.284,0-0.512-0.078-0.512-0.173v-8.653c0-0.097,0.228-0.174,0.512-0.174h8.98c0.281,0,0.508,0.077,0.508,0.174V85.91z"/>
</g>
</svg>
