<?xml version="1.0" encoding="utf-8"?>
<!-- Generator: Adobe Illustrator 15.0.0, SVG Export Plug-In . SVG Version: 6.00 Build 0)  -->
<!DOCTYPE svg PUBLIC "-//W3C//DTD SVG 1.1//EN" "http://www.w3.org/Graphics/SVG/1.1/DTD/svg11.dtd">
<svg version="1.1" id="Layer_1" xmlns="http://www.w3.org/2000/svg" xmlns:xlink="http://www.w3.org/1999/xlink" x="0px" y="0px"
	 width="28.883px" height="22.47px" viewBox="99.564 64.283 28.883 22.47" enable-background="new 99.564 64.283 28.883 22.47"
	 xml:space="preserve" stroke="currentColor">
<g>
	<g>
		<path fill="none" stroke-width="1.7434" d="M111.745,85.536c0,0.19-0.249,0.345-0.557,0.345h-9.813
			c-0.309,0-0.558-0.154-0.558-0.345V68.468c0-0.19,0.249-0.344,0.558-0.344h9.813c0.308,0,0.557,0.153,0.557,0.344V85.536z"/>
		<g>
			<path fill="none" stroke-width="1.5744" d="M109.034,73.917c0,0.338-0.157,0.612-0.355,0.612h-4.844
				c-0.2,0-0.357-0.274-0.357-0.612v-2.142c0-0.338,0.157-0.611,0.357-0.611h4.844c0.198,0,0.355,0.273,0.355,0.611V73.917z"/>
		</g>
		<g>
			<path fill="none" stroke-width="1.5744" d="M109.034,80.125c0,0.338-0.157,0.612-0.355,0.612h-4.844
				c-0.2,0-0.357-0.274-0.357-0.612v-2.142c0-0.338,0.157-0.611,0.357-0.611h4.844c0.198,0,0.355,0.273,0.355,0.611V80.125z"/>
		</g>
	</g>
	<line fill="none" stroke-width="1.9325" x1="99.564" y1="65.249" x2="128.447" y2="65.249"/>
	<g>
		<path fill="none" stroke-width="1.7434" d="M127.256,85.536c0,0.19-0.249,0.345-0.557,0.345h-9.813
			c-0.309,0-0.558-0.154-0.558-0.345V68.468c0-0.19,0.249-0.344,0.558-0.344h9.813c0.308,0,0.557,0.153,0.557,0.344V85.536z"/>
		<g>
			<path fill="none" stroke-width="1.5744" d="M124.545,73.917c0,0.338-0.157,0.612-0.355,0.612h-4.844
				c-0.2,0-0.357-0.274-0.357-0.612v-2.142c0-0.338,0.157-0.611,0.357-0.611h4.844c0.198,0,0.355,0.273,0.355,0.611V73.917z"/>
		</g>
	</g>
</g>
</svg>
